<?xml version="1.0" standalone="no"?>
<!DOCTYPE svg PUBLIC "-//W3C//DTD SVG 20010904//EN"
 "http://www.w3.org/TR/2001/REC-SVG-20010904/DTD/svg10.dtd">
<svg version="1.0" xmlns="http://www.w3.org/2000/svg"
 width="700.000000pt" height="700.000000pt" viewBox="0 0 700.000000 700.000000"
 preserveAspectRatio="xMidYMid meet">
<metadata>
Created by potrace 1.11, written by Peter Selinger 2001-2013
</metadata>
<g transform="translate(0.000000,700.000000) scale(0.100000,-0.100000)"
fill="#000000" stroke="none">
<path d="M3270 6994 c-469 -40 -809 -120 -1167 -275 -780 -339 -1483 -1042
-1822 -1822 -133 -308 -218 -635 -263 -1012 -17 -145 -17 -625 0 -770 56 -473
174 -863 375 -1239 166 -312 346 -555 611 -824 533 -544 1155 -877 1861 -997
243 -41 348 -50 635 -50 287 0 392 9 635 50 516 88 992 293 1422 611 147 109
240 190 391 338 543 533 877 1156 997 1861 41 243 50 348 50 635 0 287 -9 392
-50 635 -120 705 -454 1328 -997 1861 -151 148 -244 229 -391 338 -485 359
-1009 566 -1627 642 -118 14 -562 26 -660 18z m624 -389 c543 -64 1027 -258
1458 -582 563 -425 971 -1000 1152 -1628 85 -293 120 -553 120 -895 0 -370
-41 -650 -143 -975 -284 -904 -1102 -1722 -2006 -2006 -325 -102 -605 -143
-975 -143 -254 0 -374 10 -600 50 -744 133 -1430 569 -1923 1222 -333 442
-524 931 -589 1507 -16 141 -16 548 0 690 77 685 336 1254 805 1765 402 438
896 749 1427 899 215 61 413 93 695 115 99 8 452 -4 579 -19z"/>
<path d="M3385 5851 c-22 -10 -50 -29 -62 -42 -28 -31 -1026 -2340 -1016
-2350 7 -6 2980 -1737 3131 -1822 l53 -30 -14 34 c-278 657 -1796 4151 -1810
4166 -56 62 -196 84 -282 44z"/>
<path d="M1882 2498 c-210 -485 -381 -883 -379 -884 3 -3 1878 1083 1890 1095
4 4 -239 151 -540 326 -301 175 -557 324 -569 332 -20 12 -32 -15 -402 -869z"/>
</g>
</svg>
